<svg xmlns="http://www.w3.org/2000/svg" width="1400" height="760" viewBox="0 0 1400 760">
<rect width="1400" height="760" fill="#ffffff"/>
<text x="90" y="56" font-size="28" font-weight="700" font-family="Noto Sans SC, Microsoft YaHei, sans-serif" fill="#1f2933">Harmonic 5 / Harmonic 3 Trend</text>
<text x="90" y="84" font-size="16" font-family="Noto Sans SC, Microsoft YaHei, sans-serif" fill="#1f2933">test_synomag_2ug_Spectra.txt | 5000Hz</text>
<rect x="90" y="100" width="900" height="540" fill="#fbfcfe" stroke="#c7d0db"/>
<line x1="90" y1="100.00" x2="990" y2="100.00" stroke="#d9dfe8" stroke-width="1"/>
<text x="78" y="105.00" text-anchor="end" font-size="14" font-family="Noto Sans SC, Microsoft YaHei, sans-serif" fill="#1f2933">0.345501</text>
<line x1="90" y1="208.00" x2="990" y2="208.00" stroke="#d9dfe8" stroke-width="1"/>
<text x="78" y="213.00" text-anchor="end" font-size="14" font-family="Noto Sans SC, Microsoft YaHei, sans-serif" fill="#1f2933">0.345352</text>
<line x1="90" y1="316.00" x2="990" y2="316.00" stroke="#d9dfe8" stroke-width="1"/>
<text x="78" y="321.00" text-anchor="end" font-size="14" font-family="Noto Sans SC, Microsoft YaHei, sans-serif" fill="#1f2933">0.345203</text>
<line x1="90" y1="424.00" x2="990" y2="424.00" stroke="#d9dfe8" stroke-width="1"/>
<text x="78" y="429.00" text-anchor="end" font-size="14" font-family="Noto Sans SC, Microsoft YaHei, sans-serif" fill="#1f2933">0.345055</text>
<line x1="90" y1="532.00" x2="990" y2="532.00" stroke="#d9dfe8" stroke-width="1"/>
<text x="78" y="537.00" text-anchor="end" font-size="14" font-family="Noto Sans SC, Microsoft YaHei, sans-serif" fill="#1f2933">0.344906</text>
<line x1="90" y1="640.00" x2="990" y2="640.00" stroke="#d9dfe8" stroke-width="1"/>
<text x="78" y="645.00" text-anchor="end" font-size="14" font-family="Noto Sans SC, Microsoft YaHei, sans-serif" fill="#1f2933">0.344757</text>
<line x1="90.00" y1="100" x2="90.00" y2="640" stroke="#d9dfe8" stroke-width="1"/>
<text x="90.00" y="670" text-anchor="middle" font-size="14" font-family="Noto Sans SC, Microsoft YaHei, sans-serif" fill="#1f2933">1</text>
<line x1="181.84" y1="100" x2="181.84" y2="640" stroke="#d9dfe8" stroke-width="1"/>
<text x="181.84" y="670" text-anchor="middle" font-size="14" font-family="Noto Sans SC, Microsoft YaHei, sans-serif" fill="#1f2933">6</text>
<line x1="292.04" y1="100" x2="292.04" y2="640" stroke="#d9dfe8" stroke-width="1"/>
<text x="292.04" y="670" text-anchor="middle" font-size="14" font-family="Noto Sans SC, Microsoft YaHei, sans-serif" fill="#1f2933">12</text>
<line x1="383.88" y1="100" x2="383.88" y2="640" stroke="#d9dfe8" stroke-width="1"/>
<text x="383.88" y="670" text-anchor="middle" font-size="14" font-family="Noto Sans SC, Microsoft YaHei, sans-serif" fill="#1f2933">17</text>
<line x1="494.08" y1="100" x2="494.08" y2="640" stroke="#d9dfe8" stroke-width="1"/>
<text x="494.08" y="670" text-anchor="middle" font-size="14" font-family="Noto Sans SC, Microsoft YaHei, sans-serif" fill="#1f2933">23</text>
<line x1="585.92" y1="100" x2="585.92" y2="640" stroke="#d9dfe8" stroke-width="1"/>
<text x="585.92" y="670" text-anchor="middle" font-size="14" font-family="Noto Sans SC, Microsoft YaHei, sans-serif" fill="#1f2933">28</text>
<line x1="696.12" y1="100" x2="696.12" y2="640" stroke="#d9dfe8" stroke-width="1"/>
<text x="696.12" y="670" text-anchor="middle" font-size="14" font-family="Noto Sans SC, Microsoft YaHei, sans-serif" fill="#1f2933">34</text>
<line x1="787.96" y1="100" x2="787.96" y2="640" stroke="#d9dfe8" stroke-width="1"/>
<text x="787.96" y="670" text-anchor="middle" font-size="14" font-family="Noto Sans SC, Microsoft YaHei, sans-serif" fill="#1f2933">39</text>
<line x1="898.16" y1="100" x2="898.16" y2="640" stroke="#d9dfe8" stroke-width="1"/>
<text x="898.16" y="670" text-anchor="middle" font-size="14" font-family="Noto Sans SC, Microsoft YaHei, sans-serif" fill="#1f2933">45</text>
<line x1="990.00" y1="100" x2="990.00" y2="640" stroke="#d9dfe8" stroke-width="1"/>
<text x="990.00" y="670" text-anchor="middle" font-size="14" font-family="Noto Sans SC, Microsoft YaHei, sans-serif" fill="#1f2933">50</text>
<line x1="90" y1="640" x2="990" y2="640" stroke="#6b7785" stroke-width="1.5"/>
<line x1="90" y1="100" x2="90" y2="640" stroke="#6b7785" stroke-width="1.5"/>
<polyline fill="none" stroke="#2f855a" stroke-width="3" points="90.00,137.24 108.37,333.61 126.73,419.45 145.10,469.14 163.47,499.89 181.84,522.34 200.20,545.92 218.57,555.66 236.94,580.82 255.31,582.92 273.67,580.69 292.04,592.98 310.41,596.97 328.78,602.56 347.14,599.75 365.51,602.76 383.88,599.46 402.24,593.48 420.61,580.25 438.98,571.27 457.35,565.52 475.71,561.92 494.08,552.00 512.45,553.15 530.82,552.10 549.18,531.50 567.55,529.54 585.92,521.85 604.29,504.46 622.65,496.46 641.02,480.57 659.39,484.14 677.76,478.01 696.12,450.51 714.49,434.54 732.86,429.14 751.22,435.23 769.59,412.07 787.96,397.42 806.33,392.92 824.69,373.31 843.06,363.60 861.43,353.38 879.80,329.54 898.16,311.68 916.53,299.29 934.90,298.64 953.27,300.12 971.63,304.88 990.00,248.47"/>
<polyline fill="none" stroke="#5f6368" stroke-width="2" stroke-dasharray="8 6" points="90.00,573.26 990.00,367.27"/>
<circle cx="90.00" cy="137.24" r="4.2" fill="#2f855a" opacity="0.92"/>
<circle cx="108.37" cy="333.61" r="4.2" fill="#2f855a" opacity="0.92"/>
<circle cx="126.73" cy="419.45" r="4.2" fill="#2f855a" opacity="0.92"/>
<circle cx="145.10" cy="469.14" r="4.2" fill="#2f855a" opacity="0.92"/>
<circle cx="163.47" cy="499.89" r="4.2" fill="#2f855a" opacity="0.92"/>
<circle cx="181.84" cy="522.34" r="4.2" fill="#2f855a" opacity="0.92"/>
<circle cx="200.20" cy="545.92" r="4.2" fill="#2f855a" opacity="0.92"/>
<circle cx="218.57" cy="555.66" r="4.2" fill="#2f855a" opacity="0.92"/>
<circle cx="236.94" cy="580.82" r="4.2" fill="#2f855a" opacity="0.92"/>
<circle cx="255.31" cy="582.92" r="4.2" fill="#2f855a" opacity="0.92"/>
<circle cx="273.67" cy="580.69" r="4.2" fill="#2f855a" opacity="0.92"/>
<circle cx="292.04" cy="592.98" r="4.2" fill="#2f855a" opacity="0.92"/>
<circle cx="310.41" cy="596.97" r="4.2" fill="#2f855a" opacity="0.92"/>
<circle cx="328.78" cy="602.56" r="4.2" fill="#2f855a" opacity="0.92"/>
<circle cx="347.14" cy="599.75" r="4.2" fill="#2f855a" opacity="0.92"/>
<circle cx="365.51" cy="602.76" r="4.2" fill="#2f855a" opacity="0.92"/>
<circle cx="383.88" cy="599.46" r="4.2" fill="#2f855a" opacity="0.92"/>
<circle cx="402.24" cy="593.48" r="4.2" fill="#2f855a" opacity="0.92"/>
<circle cx="420.61" cy="580.25" r="4.2" fill="#2f855a" opacity="0.92"/>
<circle cx="438.98" cy="571.27" r="4.2" fill="#2f855a" opacity="0.92"/>
<circle cx="457.35" cy="565.52" r="4.2" fill="#2f855a" opacity="0.92"/>
<circle cx="475.71" cy="561.92" r="4.2" fill="#2f855a" opacity="0.92"/>
<circle cx="494.08" cy="552.00" r="4.2" fill="#2f855a" opacity="0.92"/>
<circle cx="512.45" cy="553.15" r="4.2" fill="#2f855a" opacity="0.92"/>
<circle cx="530.82" cy="552.10" r="4.2" fill="#2f855a" opacity="0.92"/>
<circle cx="549.18" cy="531.50" r="4.2" fill="#2f855a" opacity="0.92"/>
<circle cx="567.55" cy="529.54" r="4.2" fill="#2f855a" opacity="0.92"/>
<circle cx="585.92" cy="521.85" r="4.2" fill="#2f855a" opacity="0.92"/>
<circle cx="604.29" cy="504.46" r="4.2" fill="#2f855a" opacity="0.92"/>
<circle cx="622.65" cy="496.46" r="4.2" fill="#2f855a" opacity="0.92"/>
<circle cx="641.02" cy="480.57" r="4.2" fill="#2f855a" opacity="0.92"/>
<circle cx="659.39" cy="484.14" r="4.2" fill="#2f855a" opacity="0.92"/>
<circle cx="677.76" cy="478.01" r="4.2" fill="#2f855a" opacity="0.92"/>
<circle cx="696.12" cy="450.51" r="4.2" fill="#2f855a" opacity="0.92"/>
<circle cx="714.49" cy="434.54" r="4.2" fill="#2f855a" opacity="0.92"/>
<circle cx="732.86" cy="429.14" r="4.2" fill="#2f855a" opacity="0.92"/>
<circle cx="751.22" cy="435.23" r="4.2" fill="#2f855a" opacity="0.92"/>
<circle cx="769.59" cy="412.07" r="4.2" fill="#2f855a" opacity="0.92"/>
<circle cx="787.96" cy="397.42" r="4.2" fill="#2f855a" opacity="0.92"/>
<circle cx="806.33" cy="392.92" r="4.2" fill="#2f855a" opacity="0.92"/>
<circle cx="824.69" cy="373.31" r="4.2" fill="#2f855a" opacity="0.92"/>
<circle cx="843.06" cy="363.60" r="4.2" fill="#2f855a" opacity="0.92"/>
<circle cx="861.43" cy="353.38" r="4.2" fill="#2f855a" opacity="0.92"/>
<circle cx="879.80" cy="329.54" r="4.2" fill="#2f855a" opacity="0.92"/>
<circle cx="898.16" cy="311.68" r="4.2" fill="#2f855a" opacity="0.92"/>
<circle cx="916.53" cy="299.29" r="4.2" fill="#2f855a" opacity="0.92"/>
<circle cx="934.90" cy="298.64" r="4.2" fill="#2f855a" opacity="0.92"/>
<circle cx="953.27" cy="300.12" r="4.2" fill="#2f855a" opacity="0.92"/>
<circle cx="971.63" cy="304.88" r="4.2" fill="#2f855a" opacity="0.92"/>
<circle cx="990.00" cy="248.47" r="4.2" fill="#2f855a" opacity="0.92"/>
<text x="540.00" y="732" text-anchor="middle" font-size="18" font-family="Noto Sans SC, Microsoft YaHei, sans-serif" fill="#1f2933">Measurement Index</text>
<text x="34" y="370.00" transform="rotate(-90 34 370.00)" text-anchor="middle" font-size="18" font-family="Noto Sans SC, Microsoft YaHei, sans-serif" fill="#1f2933">Magnitude</text>
<rect x="1025" y="150" width="280" height="275" rx="14" fill="#f6f8fb" stroke="#d7dee7"/>
<text x="1045" y="184" font-size="20" font-weight="700" font-family="Noto Sans SC, Microsoft YaHei, sans-serif" fill="#1f2933">Quick Stats</text>
<text x="1045" y="212" font-size="16" font-family="Noto Sans SC, Microsoft YaHei, sans-serif" fill="#1f2933">Count: 50</text>
<text x="1045" y="240" font-size="16" font-family="Noto Sans SC, Microsoft YaHei, sans-serif" fill="#1f2933">Min: 0.344809</text>
<text x="1045" y="268" font-size="16" font-family="Noto Sans SC, Microsoft YaHei, sans-serif" fill="#1f2933">Max: 0.345449</text>
<text x="1045" y="296" font-size="16" font-family="Noto Sans SC, Microsoft YaHei, sans-serif" fill="#1f2933">Mean: 0.344991</text>
<text x="1045" y="324" font-size="16" font-family="Noto Sans SC, Microsoft YaHei, sans-serif" fill="#1f2933">Std: 0.000157</text>
<text x="1045" y="352" font-size="16" font-family="Noto Sans SC, Microsoft YaHei, sans-serif" fill="#1f2933">CV: 0.0455%</text>
<text x="1045" y="380" font-size="16" font-family="Noto Sans SC, Microsoft YaHei, sans-serif" fill="#1f2933">Slope: 5.787e-06</text>
<text x="1045" y="408" font-size="16" font-family="Noto Sans SC, Microsoft YaHei, sans-serif" fill="#1f2933">Drift: -0.0444%</text>
<line x1="1025" y1="461" x2="1057" y2="461" stroke="#2f855a" stroke-width="4"/>
<text x="1069" y="467" font-size="15" font-family="Noto Sans SC, Microsoft YaHei, sans-serif" fill="#1f2933">Measured magnitude</text>
<line x1="1025" y1="493" x2="1057" y2="493" stroke="#5f6368" stroke-width="3" stroke-dasharray="8 6"/>
<text x="1069" y="499" font-size="15" font-family="Noto Sans SC, Microsoft YaHei, sans-serif" fill="#1f2933">Linear trend</text>
<text x="1378" y="742" text-anchor="end" font-size="12" font-family="Noto Sans SC, Microsoft YaHei, sans-serif" fill="#6b7785">Generated by harmonic_plot_cli.py</text>
</svg>