<svg xmlns="http://www.w3.org/2000/svg" width="1400" height="760" viewBox="0 0 1400 760">
<rect width="1400" height="760" fill="#ffffff"/>
<text x="90" y="56" font-size="28" font-weight="700" font-family="Noto Sans SC, Microsoft YaHei, sans-serif" fill="#1f2933">Harmonic 5 Magnitude Trend</text>
<text x="90" y="84" font-size="16" font-family="Noto Sans SC, Microsoft YaHei, sans-serif" fill="#1f2933">水凝胶_Spectra.txt | 5000Hz</text>
<rect x="90" y="100" width="900" height="540" fill="#fbfcfe" stroke="#c7d0db"/>
<line x1="90" y1="100.00" x2="990" y2="100.00" stroke="#d9dfe8" stroke-width="1"/>
<text x="78" y="105.00" text-anchor="end" font-size="14" font-family="Noto Sans SC, Microsoft YaHei, sans-serif" fill="#1f2933">0.039919</text>
<line x1="90" y1="208.00" x2="990" y2="208.00" stroke="#d9dfe8" stroke-width="1"/>
<text x="78" y="213.00" text-anchor="end" font-size="14" font-family="Noto Sans SC, Microsoft YaHei, sans-serif" fill="#1f2933">0.037941</text>
<line x1="90" y1="316.00" x2="990" y2="316.00" stroke="#d9dfe8" stroke-width="1"/>
<text x="78" y="321.00" text-anchor="end" font-size="14" font-family="Noto Sans SC, Microsoft YaHei, sans-serif" fill="#1f2933">0.035963</text>
<line x1="90" y1="424.00" x2="990" y2="424.00" stroke="#d9dfe8" stroke-width="1"/>
<text x="78" y="429.00" text-anchor="end" font-size="14" font-family="Noto Sans SC, Microsoft YaHei, sans-serif" fill="#1f2933">0.033985</text>
<line x1="90" y1="532.00" x2="990" y2="532.00" stroke="#d9dfe8" stroke-width="1"/>
<text x="78" y="537.00" text-anchor="end" font-size="14" font-family="Noto Sans SC, Microsoft YaHei, sans-serif" fill="#1f2933">0.032007</text>
<line x1="90" y1="640.00" x2="990" y2="640.00" stroke="#d9dfe8" stroke-width="1"/>
<text x="78" y="645.00" text-anchor="end" font-size="14" font-family="Noto Sans SC, Microsoft YaHei, sans-serif" fill="#1f2933">0.030028</text>
<line x1="90.00" y1="100" x2="90.00" y2="640" stroke="#d9dfe8" stroke-width="1"/>
<text x="90.00" y="670" text-anchor="middle" font-size="14" font-family="Noto Sans SC, Microsoft YaHei, sans-serif" fill="#1f2933">1</text>
<line x1="181.84" y1="100" x2="181.84" y2="640" stroke="#d9dfe8" stroke-width="1"/>
<text x="181.84" y="670" text-anchor="middle" font-size="14" font-family="Noto Sans SC, Microsoft YaHei, sans-serif" fill="#1f2933">6</text>
<line x1="292.04" y1="100" x2="292.04" y2="640" stroke="#d9dfe8" stroke-width="1"/>
<text x="292.04" y="670" text-anchor="middle" font-size="14" font-family="Noto Sans SC, Microsoft YaHei, sans-serif" fill="#1f2933">12</text>
<line x1="383.88" y1="100" x2="383.88" y2="640" stroke="#d9dfe8" stroke-width="1"/>
<text x="383.88" y="670" text-anchor="middle" font-size="14" font-family="Noto Sans SC, Microsoft YaHei, sans-serif" fill="#1f2933">17</text>
<line x1="494.08" y1="100" x2="494.08" y2="640" stroke="#d9dfe8" stroke-width="1"/>
<text x="494.08" y="670" text-anchor="middle" font-size="14" font-family="Noto Sans SC, Microsoft YaHei, sans-serif" fill="#1f2933">23</text>
<line x1="585.92" y1="100" x2="585.92" y2="640" stroke="#d9dfe8" stroke-width="1"/>
<text x="585.92" y="670" text-anchor="middle" font-size="14" font-family="Noto Sans SC, Microsoft YaHei, sans-serif" fill="#1f2933">28</text>
<line x1="696.12" y1="100" x2="696.12" y2="640" stroke="#d9dfe8" stroke-width="1"/>
<text x="696.12" y="670" text-anchor="middle" font-size="14" font-family="Noto Sans SC, Microsoft YaHei, sans-serif" fill="#1f2933">34</text>
<line x1="787.96" y1="100" x2="787.96" y2="640" stroke="#d9dfe8" stroke-width="1"/>
<text x="787.96" y="670" text-anchor="middle" font-size="14" font-family="Noto Sans SC, Microsoft YaHei, sans-serif" fill="#1f2933">39</text>
<line x1="898.16" y1="100" x2="898.16" y2="640" stroke="#d9dfe8" stroke-width="1"/>
<text x="898.16" y="670" text-anchor="middle" font-size="14" font-family="Noto Sans SC, Microsoft YaHei, sans-serif" fill="#1f2933">45</text>
<line x1="990.00" y1="100" x2="990.00" y2="640" stroke="#d9dfe8" stroke-width="1"/>
<text x="990.00" y="670" text-anchor="middle" font-size="14" font-family="Noto Sans SC, Microsoft YaHei, sans-serif" fill="#1f2933">50</text>
<line x1="90" y1="640" x2="990" y2="640" stroke="#6b7785" stroke-width="1.5"/>
<line x1="90" y1="100" x2="90" y2="640" stroke="#6b7785" stroke-width="1.5"/>
<polyline fill="none" stroke="#d95f02" stroke-width="3" points="90.00,137.24 108.37,194.67 126.73,245.52 145.10,290.01 163.47,329.77 181.84,363.87 200.20,394.76 218.57,420.02 236.94,440.93 255.31,458.78 273.67,474.44 292.04,488.50 310.41,499.56 328.78,510.20 347.14,518.92 365.51,526.34 383.88,533.40 402.24,539.69 420.61,546.45 438.98,551.33 457.35,555.65 475.71,558.47 494.08,564.00 512.45,568.42 530.82,574.01 549.18,575.98 567.55,578.26 585.92,579.99 604.29,581.85 622.65,584.19 641.02,586.09 659.39,587.31 677.76,588.61 696.12,590.15 714.49,591.07 732.86,592.34 751.22,593.96 769.59,594.43 787.96,595.85 806.33,596.57 824.69,596.86 843.06,597.18 861.43,598.45 879.80,598.78 898.16,599.82 916.53,600.83 934.90,601.22 953.27,601.57 971.63,601.47 990.00,602.76"/>
<polyline fill="none" stroke="#5f6368" stroke-width="2" stroke-dasharray="8 6" points="90.00,367.26 990.00,676.76"/>
<circle cx="90.00" cy="137.24" r="4.2" fill="#d95f02" opacity="0.92"/>
<circle cx="108.37" cy="194.67" r="4.2" fill="#d95f02" opacity="0.92"/>
<circle cx="126.73" cy="245.52" r="4.2" fill="#d95f02" opacity="0.92"/>
<circle cx="145.10" cy="290.01" r="4.2" fill="#d95f02" opacity="0.92"/>
<circle cx="163.47" cy="329.77" r="4.2" fill="#d95f02" opacity="0.92"/>
<circle cx="181.84" cy="363.87" r="4.2" fill="#d95f02" opacity="0.92"/>
<circle cx="200.20" cy="394.76" r="4.2" fill="#d95f02" opacity="0.92"/>
<circle cx="218.57" cy="420.02" r="4.2" fill="#d95f02" opacity="0.92"/>
<circle cx="236.94" cy="440.93" r="4.2" fill="#d95f02" opacity="0.92"/>
<circle cx="255.31" cy="458.78" r="4.2" fill="#d95f02" opacity="0.92"/>
<circle cx="273.67" cy="474.44" r="4.2" fill="#d95f02" opacity="0.92"/>
<circle cx="292.04" cy="488.50" r="4.2" fill="#d95f02" opacity="0.92"/>
<circle cx="310.41" cy="499.56" r="4.2" fill="#d95f02" opacity="0.92"/>
<circle cx="328.78" cy="510.20" r="4.2" fill="#d95f02" opacity="0.92"/>
<circle cx="347.14" cy="518.92" r="4.2" fill="#d95f02" opacity="0.92"/>
<circle cx="365.51" cy="526.34" r="4.2" fill="#d95f02" opacity="0.92"/>
<circle cx="383.88" cy="533.40" r="4.2" fill="#d95f02" opacity="0.92"/>
<circle cx="402.24" cy="539.69" r="4.2" fill="#d95f02" opacity="0.92"/>
<circle cx="420.61" cy="546.45" r="4.2" fill="#d95f02" opacity="0.92"/>
<circle cx="438.98" cy="551.33" r="4.2" fill="#d95f02" opacity="0.92"/>
<circle cx="457.35" cy="555.65" r="4.2" fill="#d95f02" opacity="0.92"/>
<circle cx="475.71" cy="558.47" r="4.2" fill="#d95f02" opacity="0.92"/>
<circle cx="494.08" cy="564.00" r="4.2" fill="#d95f02" opacity="0.92"/>
<circle cx="512.45" cy="568.42" r="4.2" fill="#d95f02" opacity="0.92"/>
<circle cx="530.82" cy="574.01" r="4.2" fill="#d95f02" opacity="0.92"/>
<circle cx="549.18" cy="575.98" r="4.2" fill="#d95f02" opacity="0.92"/>
<circle cx="567.55" cy="578.26" r="4.2" fill="#d95f02" opacity="0.92"/>
<circle cx="585.92" cy="579.99" r="4.2" fill="#d95f02" opacity="0.92"/>
<circle cx="604.29" cy="581.85" r="4.2" fill="#d95f02" opacity="0.92"/>
<circle cx="622.65" cy="584.19" r="4.2" fill="#d95f02" opacity="0.92"/>
<circle cx="641.02" cy="586.09" r="4.2" fill="#d95f02" opacity="0.92"/>
<circle cx="659.39" cy="587.31" r="4.2" fill="#d95f02" opacity="0.92"/>
<circle cx="677.76" cy="588.61" r="4.2" fill="#d95f02" opacity="0.92"/>
<circle cx="696.12" cy="590.15" r="4.2" fill="#d95f02" opacity="0.92"/>
<circle cx="714.49" cy="591.07" r="4.2" fill="#d95f02" opacity="0.92"/>
<circle cx="732.86" cy="592.34" r="4.2" fill="#d95f02" opacity="0.92"/>
<circle cx="751.22" cy="593.96" r="4.2" fill="#d95f02" opacity="0.92"/>
<circle cx="769.59" cy="594.43" r="4.2" fill="#d95f02" opacity="0.92"/>
<circle cx="787.96" cy="595.85" r="4.2" fill="#d95f02" opacity="0.92"/>
<circle cx="806.33" cy="596.57" r="4.2" fill="#d95f02" opacity="0.92"/>
<circle cx="824.69" cy="596.86" r="4.2" fill="#d95f02" opacity="0.92"/>
<circle cx="843.06" cy="597.18" r="4.2" fill="#d95f02" opacity="0.92"/>
<circle cx="861.43" cy="598.45" r="4.2" fill="#d95f02" opacity="0.92"/>
<circle cx="879.80" cy="598.78" r="4.2" fill="#d95f02" opacity="0.92"/>
<circle cx="898.16" cy="599.82" r="4.2" fill="#d95f02" opacity="0.92"/>
<circle cx="916.53" cy="600.83" r="4.2" fill="#d95f02" opacity="0.92"/>
<circle cx="934.90" cy="601.22" r="4.2" fill="#d95f02" opacity="0.92"/>
<circle cx="953.27" cy="601.57" r="4.2" fill="#d95f02" opacity="0.92"/>
<circle cx="971.63" cy="601.47" r="4.2" fill="#d95f02" opacity="0.92"/>
<circle cx="990.00" cy="602.76" r="4.2" fill="#d95f02" opacity="0.92"/>
<text x="540.00" y="732" text-anchor="middle" font-size="18" font-family="Noto Sans SC, Microsoft YaHei, sans-serif" fill="#1f2933">Measurement Index</text>
<text x="34" y="370.00" transform="rotate(-90 34 370.00)" text-anchor="middle" font-size="18" font-family="Noto Sans SC, Microsoft YaHei, sans-serif" fill="#1f2933">Magnitude</text>
<rect x="1025" y="150" width="280" height="275" rx="14" fill="#f6f8fb" stroke="#d7dee7"/>
<text x="1045" y="184" font-size="20" font-weight="700" font-family="Noto Sans SC, Microsoft YaHei, sans-serif" fill="#1f2933">Quick Stats</text>
<text x="1045" y="212" font-size="16" font-family="Noto Sans SC, Microsoft YaHei, sans-serif" fill="#1f2933">Count: 50</text>
<text x="1045" y="240" font-size="16" font-family="Noto Sans SC, Microsoft YaHei, sans-serif" fill="#1f2933">Min: 0.030710</text>
<text x="1045" y="268" font-size="16" font-family="Noto Sans SC, Microsoft YaHei, sans-serif" fill="#1f2933">Max: 0.039237</text>
<text x="1045" y="296" font-size="16" font-family="Noto Sans SC, Microsoft YaHei, sans-serif" fill="#1f2933">Mean: 0.032189</text>
<text x="1045" y="324" font-size="16" font-family="Noto Sans SC, Microsoft YaHei, sans-serif" fill="#1f2933">Std: 0.002070</text>
<text x="1045" y="352" font-size="16" font-family="Noto Sans SC, Microsoft YaHei, sans-serif" fill="#1f2933">CV: 6.4306%</text>
<text x="1045" y="380" font-size="16" font-family="Noto Sans SC, Microsoft YaHei, sans-serif" fill="#1f2933">Slope: -1.157e-04</text>
<text x="1045" y="408" font-size="16" font-family="Noto Sans SC, Microsoft YaHei, sans-serif" fill="#1f2933">Drift: -26.4886%</text>
<line x1="1025" y1="461" x2="1057" y2="461" stroke="#d95f02" stroke-width="4"/>
<text x="1069" y="467" font-size="15" font-family="Noto Sans SC, Microsoft YaHei, sans-serif" fill="#1f2933">Measured magnitude</text>
<line x1="1025" y1="493" x2="1057" y2="493" stroke="#5f6368" stroke-width="3" stroke-dasharray="8 6"/>
<text x="1069" y="499" font-size="15" font-family="Noto Sans SC, Microsoft YaHei, sans-serif" fill="#1f2933">Linear trend</text>
<text x="1378" y="742" text-anchor="end" font-size="12" font-family="Noto Sans SC, Microsoft YaHei, sans-serif" fill="#6b7785">Generated by harmonic_plot_cli.py</text>
</svg>