<svg xmlns="http://www.w3.org/2000/svg" width="1400" height="760" viewBox="0 0 1400 760">
<rect width="1400" height="760" fill="#ffffff"/>
<text x="90" y="56" font-size="28" font-weight="700" font-family="Noto Sans SC, Microsoft YaHei, sans-serif" fill="#1f2933">Harmonic 5 Magnitude Trend</text>
<text x="90" y="84" font-size="16" font-family="Noto Sans SC, Microsoft YaHei, sans-serif" fill="#1f2933">1_1_Spectra.txt | 5000Hz</text>
<rect x="90" y="100" width="900" height="540" fill="#fbfcfe" stroke="#c7d0db"/>
<line x1="90" y1="100.00" x2="990" y2="100.00" stroke="#d9dfe8" stroke-width="1"/>
<text x="78" y="105.00" text-anchor="end" font-size="14" font-family="Noto Sans SC, Microsoft YaHei, sans-serif" fill="#1f2933">0.100908</text>
<line x1="90" y1="208.00" x2="990" y2="208.00" stroke="#d9dfe8" stroke-width="1"/>
<text x="78" y="213.00" text-anchor="end" font-size="14" font-family="Noto Sans SC, Microsoft YaHei, sans-serif" fill="#1f2933">0.100513</text>
<line x1="90" y1="316.00" x2="990" y2="316.00" stroke="#d9dfe8" stroke-width="1"/>
<text x="78" y="321.00" text-anchor="end" font-size="14" font-family="Noto Sans SC, Microsoft YaHei, sans-serif" fill="#1f2933">0.100118</text>
<line x1="90" y1="424.00" x2="990" y2="424.00" stroke="#d9dfe8" stroke-width="1"/>
<text x="78" y="429.00" text-anchor="end" font-size="14" font-family="Noto Sans SC, Microsoft YaHei, sans-serif" fill="#1f2933">0.099723</text>
<line x1="90" y1="532.00" x2="990" y2="532.00" stroke="#d9dfe8" stroke-width="1"/>
<text x="78" y="537.00" text-anchor="end" font-size="14" font-family="Noto Sans SC, Microsoft YaHei, sans-serif" fill="#1f2933">0.099327</text>
<line x1="90" y1="640.00" x2="990" y2="640.00" stroke="#d9dfe8" stroke-width="1"/>
<text x="78" y="645.00" text-anchor="end" font-size="14" font-family="Noto Sans SC, Microsoft YaHei, sans-serif" fill="#1f2933">0.098932</text>
<line x1="90.00" y1="100" x2="90.00" y2="640" stroke="#d9dfe8" stroke-width="1"/>
<text x="90.00" y="670" text-anchor="middle" font-size="14" font-family="Noto Sans SC, Microsoft YaHei, sans-serif" fill="#1f2933">1</text>
<line x1="180.00" y1="100" x2="180.00" y2="640" stroke="#d9dfe8" stroke-width="1"/>
<text x="180.00" y="670" text-anchor="middle" font-size="14" font-family="Noto Sans SC, Microsoft YaHei, sans-serif" fill="#1f2933">2</text>
<line x1="270.00" y1="100" x2="270.00" y2="640" stroke="#d9dfe8" stroke-width="1"/>
<text x="270.00" y="670" text-anchor="middle" font-size="14" font-family="Noto Sans SC, Microsoft YaHei, sans-serif" fill="#1f2933">3</text>
<line x1="360.00" y1="100" x2="360.00" y2="640" stroke="#d9dfe8" stroke-width="1"/>
<text x="360.00" y="670" text-anchor="middle" font-size="14" font-family="Noto Sans SC, Microsoft YaHei, sans-serif" fill="#1f2933">4</text>
<line x1="450.00" y1="100" x2="450.00" y2="640" stroke="#d9dfe8" stroke-width="1"/>
<text x="450.00" y="670" text-anchor="middle" font-size="14" font-family="Noto Sans SC, Microsoft YaHei, sans-serif" fill="#1f2933">5</text>
<line x1="630.00" y1="100" x2="630.00" y2="640" stroke="#d9dfe8" stroke-width="1"/>
<text x="630.00" y="670" text-anchor="middle" font-size="14" font-family="Noto Sans SC, Microsoft YaHei, sans-serif" fill="#1f2933">7</text>
<line x1="720.00" y1="100" x2="720.00" y2="640" stroke="#d9dfe8" stroke-width="1"/>
<text x="720.00" y="670" text-anchor="middle" font-size="14" font-family="Noto Sans SC, Microsoft YaHei, sans-serif" fill="#1f2933">8</text>
<line x1="810.00" y1="100" x2="810.00" y2="640" stroke="#d9dfe8" stroke-width="1"/>
<text x="810.00" y="670" text-anchor="middle" font-size="14" font-family="Noto Sans SC, Microsoft YaHei, sans-serif" fill="#1f2933">9</text>
<line x1="900.00" y1="100" x2="900.00" y2="640" stroke="#d9dfe8" stroke-width="1"/>
<text x="900.00" y="670" text-anchor="middle" font-size="14" font-family="Noto Sans SC, Microsoft YaHei, sans-serif" fill="#1f2933">10</text>
<line x1="990.00" y1="100" x2="990.00" y2="640" stroke="#d9dfe8" stroke-width="1"/>
<text x="990.00" y="670" text-anchor="middle" font-size="14" font-family="Noto Sans SC, Microsoft YaHei, sans-serif" fill="#1f2933">11</text>
<line x1="90" y1="640" x2="990" y2="640" stroke="#6b7785" stroke-width="1.5"/>
<line x1="90" y1="100" x2="90" y2="640" stroke="#6b7785" stroke-width="1.5"/>
<polyline fill="none" stroke="#d95f02" stroke-width="3" points="90.00,137.24 180.00,372.20 270.00,452.09 360.00,510.36 450.00,571.74 540.00,547.46 630.00,582.16 720.00,590.20 810.00,597.75 900.00,598.87 990.00,602.76"/>
<polyline fill="none" stroke="#5f6368" stroke-width="2" stroke-dasharray="8 6" points="90.00,331.11 990.00,680.32"/>
<circle cx="90.00" cy="137.24" r="4.2" fill="#d95f02" opacity="0.92"/>
<circle cx="180.00" cy="372.20" r="4.2" fill="#d95f02" opacity="0.92"/>
<circle cx="270.00" cy="452.09" r="4.2" fill="#d95f02" opacity="0.92"/>
<circle cx="360.00" cy="510.36" r="4.2" fill="#d95f02" opacity="0.92"/>
<circle cx="450.00" cy="571.74" r="4.2" fill="#d95f02" opacity="0.92"/>
<circle cx="540.00" cy="547.46" r="4.2" fill="#d95f02" opacity="0.92"/>
<circle cx="630.00" cy="582.16" r="4.2" fill="#d95f02" opacity="0.92"/>
<circle cx="720.00" cy="590.20" r="4.2" fill="#d95f02" opacity="0.92"/>
<circle cx="810.00" cy="597.75" r="4.2" fill="#d95f02" opacity="0.92"/>
<circle cx="900.00" cy="598.87" r="4.2" fill="#d95f02" opacity="0.92"/>
<circle cx="990.00" cy="602.76" r="4.2" fill="#d95f02" opacity="0.92"/>
<text x="540.00" y="732" text-anchor="middle" font-size="18" font-family="Noto Sans SC, Microsoft YaHei, sans-serif" fill="#1f2933">Measurement Index</text>
<text x="34" y="370.00" transform="rotate(-90 34 370.00)" text-anchor="middle" font-size="18" font-family="Noto Sans SC, Microsoft YaHei, sans-serif" fill="#1f2933">Magnitude</text>
<rect x="1025" y="150" width="280" height="275" rx="14" fill="#f6f8fb" stroke="#d7dee7"/>
<text x="1045" y="184" font-size="20" font-weight="700" font-family="Noto Sans SC, Microsoft YaHei, sans-serif" fill="#1f2933">Quick Stats</text>
<text x="1045" y="212" font-size="16" font-family="Noto Sans SC, Microsoft YaHei, sans-serif" fill="#1f2933">Count: 11</text>
<text x="1045" y="240" font-size="16" font-family="Noto Sans SC, Microsoft YaHei, sans-serif" fill="#1f2933">Min: 0.099068</text>
<text x="1045" y="268" font-size="16" font-family="Noto Sans SC, Microsoft YaHei, sans-serif" fill="#1f2933">Max: 0.100772</text>
<text x="1045" y="296" font-size="16" font-family="Noto Sans SC, Microsoft YaHei, sans-serif" fill="#1f2933">Mean: 0.099423</text>
<text x="1045" y="324" font-size="16" font-family="Noto Sans SC, Microsoft YaHei, sans-serif" fill="#1f2933">Std: 0.000520</text>
<text x="1045" y="352" font-size="16" font-family="Noto Sans SC, Microsoft YaHei, sans-serif" fill="#1f2933">CV: 0.5234%</text>
<text x="1045" y="380" font-size="16" font-family="Noto Sans SC, Microsoft YaHei, sans-serif" fill="#1f2933">Slope: -1.278e-04</text>
<text x="1045" y="408" font-size="16" font-family="Noto Sans SC, Microsoft YaHei, sans-serif" fill="#1f2933">Drift: -1.7137%</text>
<line x1="1025" y1="461" x2="1057" y2="461" stroke="#d95f02" stroke-width="4"/>
<text x="1069" y="467" font-size="15" font-family="Noto Sans SC, Microsoft YaHei, sans-serif" fill="#1f2933">Measured magnitude</text>
<line x1="1025" y1="493" x2="1057" y2="493" stroke="#5f6368" stroke-width="3" stroke-dasharray="8 6"/>
<text x="1069" y="499" font-size="15" font-family="Noto Sans SC, Microsoft YaHei, sans-serif" fill="#1f2933">Linear trend</text>
<text x="1378" y="742" text-anchor="end" font-size="12" font-family="Noto Sans SC, Microsoft YaHei, sans-serif" fill="#6b7785">Generated by harmonic_plot_cli.py</text>
</svg>